<?xml version="1.0" standalone="no"?>
<!DOCTYPE svg PUBLIC "-//W3C//DTD SVG 20010904//EN"
 "http://www.w3.org/TR/2001/REC-SVG-20010904/DTD/svg10.dtd">
<svg version="1.0" xmlns="http://www.w3.org/2000/svg"
 width="1089.000000pt" height="649.000000pt" viewBox="0 0 1089.000000 649.000000"
 preserveAspectRatio="xMidYMid meet">
<metadata>
Created by potrace 1.15, written by Peter Selinger 2001-2017
</metadata>
<g transform="translate(0.000000,649.000000) scale(0.100000,-0.100000)"
fill="#000000" stroke="none">
<path d="M10543 6476 c-122 -40 -193 -135 -193 -260 0 -108 48 -191 138 -239
140 -75 307 -24 376 115 52 104 26 254 -56 323 -76 64 -182 88 -265 61z m172
-79 c23 -13 52 -43 70 -71 55 -90 34 -218 -47 -279 -135 -102 -311 -7 -312
169 0 77 35 141 97 178 56 34 135 35 192 3z"/>
<path d="M10510 6215 l0 -155 35 0 35 0 0 65 c0 84 14 84 63 0 35 -60 40 -65
72 -65 19 0 35 2 35 5 0 2 -16 30 -36 61 -35 54 -36 58 -18 71 10 7 21 13 24
13 10 0 30 48 30 70 0 32 -21 67 -47 79 -13 6 -62 11 -108 11 l-85 0 0 -155z"/>
<path d="M7250 6450 c-638 -32 -1206 -207 -1665 -511 -347 -231 -610 -524
-785 -876 -141 -284 -207 -563 -217 -913 -16 -603 152 -1133 489 -1535 84
-101 114 -130 121 -118 2 4 146 274 319 598 l315 590 -13 85 c-48 308 -20 665
76 951 77 233 179 399 350 569 210 211 440 332 761 404 155 34 278 46 474 46
544 0 950 -142 1241 -434 117 -117 185 -214 260 -370 185 -386 221 -977 83
-1399 -234 -716 -930 -1150 -1749 -1089 -87 7 -184 17 -215 23 -32 6 -61 7
-66 2 -13 -13 -369 -661 -369 -671 0 -16 237 -46 485 -62 1069 -69 1998 206
2569 759 362 352 561 762 627 1296 18 145 15 493 -5 645 -95 713 -442 1239
-1049 1594 -419 246 -961 386 -1602 416 -227 10 -221 10 -435 0z"/>
<path d="M0 4095 l0 -2295 1671 0 c1587 0 1671 1 1665 18 -4 9 -91 176 -194
369 l-187 353 -892 0 -893 0 0 665 0 665 536 0 c506 0 536 1 530 18 -4 9 -89
171 -189 360 l-182 342 -347 0 -348 0 0 530 0 530 1150 0 1150 0 0 370 0 370
-1735 0 -1735 0 0 -2295z"/>
<path d="M2215 4523 c19 -38 568 -1069 1218 -2293 l1183 -2225 365 -3 365 -2
1262 2290 c694 1259 1262 2292 1262 2295 0 3 -280 5 -622 5 l-623 0 -810
-1515 c-445 -833 -811 -1513 -813 -1511 -2 3 -347 683 -767 1513 l-764 1508
-646 3 -646 2 36 -67z"/>
</g>
</svg>
